<?xml version="1.0" encoding="UTF-8" standalone="no"?>
<svg
   xmlns:dc="http://purl.org/dc/elements/1.1/"
   xmlns:cc="http://creativecommons.org/ns#"
   xmlns:rdf="http://www.w3.org/1999/02/22-rdf-syntax-ns#"
   xmlns:svg="http://www.w3.org/2000/svg"
   xmlns="http://www.w3.org/2000/svg"
   xmlns:xlink="http://www.w3.org/1999/xlink"
   xmlns:sodipodi="http://sodipodi.sourceforge.net/DTD/sodipodi-0.dtd"
   xmlns:inkscape="http://www.inkscape.org/namespaces/inkscape"
   width="426px"
   height="835px"
   viewBox="0 0 426 835"
   version="1.1"
   id="svg1136"
   sodipodi:docname="android-device.svg"
   inkscape:version="0.92.0 r15299">
  <metadata
     id="metadata1140">
    <rdf:RDF>
      <cc:Work
         rdf:about="">
        <dc:format>image/svg+xml</dc:format>
        <dc:type
           rdf:resource="http://purl.org/dc/dcmitype/StillImage" />
      </cc:Work>
    </rdf:RDF>
  </metadata>
  <sodipodi:namedview
     pagecolor="#ffffff"
     bordercolor="#666666"
     borderopacity="1"
     objecttolerance="10"
     gridtolerance="10"
     guidetolerance="10"
     inkscape:pageopacity="0"
     inkscape:pageshadow="2"
     inkscape:window-width="1366"
     inkscape:window-height="739"
     id="namedview1138"
     showgrid="true"
     inkscape:zoom="2.56"
     inkscape:cx="257.41933"
     inkscape:cy="857.98009"
     inkscape:window-x="-9"
     inkscape:window-y="-9"
     inkscape:window-maximized="1"
     inkscape:current-layer="svg1136"
     inkscape:snap-center="false"
     inkscape:snap-bbox="true"
     inkscape:snap-bbox-midpoints="false"
     inkscape:snap-grids="false"
     inkscape:snap-object-midpoints="false"
     inkscape:snap-bbox-edge-midpoints="true"
     inkscape:snap-intersection-paths="true"
     inkscape:object-paths="true"
     inkscape:snap-others="true">
    <inkscape:grid
       type="xygrid"
       id="grid94" />
  </sodipodi:namedview>
  <desc
     id="desc1031">Created with Lunacy</desc>
  <defs
     id="defs1062">
    <inkscape:path-effect
       effect="powerstroke"
       id="path-effect99"
       is_visible="true"
       offset_points="0,0.5"
       sort_points="true"
       interpolator_type="CubicBezierJohan"
       interpolator_beta="0.2"
       start_linecap_type="zerowidth"
       linejoin_type="extrp_arc"
       miter_limit="4"
       end_linecap_type="zerowidth" />
    <inkscape:path-effect
       effect="powerstroke"
       id="path-effect956"
       is_visible="true"
       offset_points="0,0.5"
       sort_points="true"
       interpolator_type="CubicBezierJohan"
       interpolator_beta="0.2"
       start_linecap_type="zerowidth"
       linejoin_type="extrp_arc"
       miter_limit="4"
       end_linecap_type="zerowidth" />
    <inkscape:path-effect
       effect="powerstroke"
       id="path-effect98"
       is_visible="true"
       offset_points="0,0.5"
       sort_points="true"
       interpolator_type="CubicBezierJohan"
       interpolator_beta="0.2"
       start_linecap_type="zerowidth"
       linejoin_type="extrp_arc"
       miter_limit="4"
       end_linecap_type="zerowidth" />
    <inkscape:path-effect
       effect="powerstroke"
       id="path-effect88"
       is_visible="true"
       offset_points="0,0.5"
       sort_points="true"
       interpolator_type="CubicBezierJohan"
       interpolator_beta="0.2"
       start_linecap_type="zerowidth"
       linejoin_type="extrp_arc"
       miter_limit="4"
       end_linecap_type="zerowidth" />
    <path
       d="M0 640L360 640L360 0L0 0L0 640Z"
       transform="translate(32.49524 105.6395)"
       id="path_1" />
    <path
       d="M0 0L0 640L360 640L360 0L0 0Z"
       id="path_2" />
    <path
       d="M0 0L8 12L16 0L0 0Z"
       id="path_3" />
    <path
       d="M12 12L12 0L0 12L12 12Z"
       id="path_4" />
    <path
       d="M7 1L6 1L6 0L2 0L2 1L1 1C0.4 1 0 1.4 0 2L0 12C0 12.6 0.4 13 1 13L7 13C7.6 13 8 12.6 8 12L8 2C8 1.4 7.6 1 7 1L7 1Z"
       id="path_5" />
    <path
       d="M0 2L0 14Q0 14.1025 0.00932124 14.2034Q0.0186425 14.3044 0.037209 14.4029Q0.0557754 14.5014 0.0834357 14.5967Q0.111096 14.692 0.147624 14.7833Q0.184153 14.8747 0.229252 14.9612Q0.27435 15.0478 0.327651 15.129Q0.380953 15.2101 0.442021 15.2852Q0.50309 15.3602 0.571429 15.4286Q0.639767 15.4969 0.714818 15.558Q0.789868 15.6191 0.871019 15.6724Q0.95217 15.7257 1.03876 15.7708Q1.12535 15.8158 1.21667 15.8524Q1.30799 15.8889 1.4033 15.9166Q1.49861 15.9442 1.59713 15.9628Q1.69564 15.9814 1.79657 15.9907Q1.89749 16 2 16L14 16Q14.1025 16 14.2034 15.9907Q14.3044 15.9814 14.4029 15.9628Q14.5014 15.9442 14.5967 15.9166Q14.692 15.8889 14.7833 15.8524Q14.8747 15.8158 14.9612 15.7708Q15.0478 15.7257 15.129 15.6724Q15.2101 15.6191 15.2852 15.558Q15.3602 15.4969 15.4286 15.4286Q15.4969 15.3602 15.558 15.2852Q15.6191 15.2101 15.6724 15.129Q15.7257 15.0478 15.7708 14.9612Q15.8158 14.8747 15.8524 14.7833Q15.8889 14.692 15.9166 14.5967Q15.9442 14.5014 15.9628 14.4029Q15.9814 14.3044 15.9907 14.2034Q16 14.1025 16 14L16 2Q16 1.89749 15.9907 1.79657Q15.9814 1.69564 15.9628 1.59713Q15.9442 1.49861 15.9166 1.4033Q15.8889 1.30799 15.8524 1.21667Q15.8158 1.12535 15.7708 1.03876Q15.7257 0.95217 15.6724 0.871019Q15.6191 0.789868 15.558 0.714818Q15.4969 0.639767 15.4286 0.571429Q15.3602 0.50309 15.2852 0.442021Q15.2101 0.380953 15.129 0.327651Q15.0478 0.27435 14.9612 0.229252Q14.8747 0.184153 14.7833 0.147624Q14.692 0.111096 14.5967 0.0834357Q14.5014 0.0557754 14.4029 0.037209Q14.3044 0.0186425 14.2034 0.00932124Q14.1025 0 14 0L2 0Q1.89749 0 1.79657 0.00932124Q1.69564 0.0186425 1.59713 0.037209Q1.49861 0.0557754 1.4033 0.0834357Q1.30799 0.111096 1.21667 0.147624Q1.12535 0.184153 1.03876 0.229252Q0.95217 0.27435 0.871019 0.327651Q0.789868 0.380953 0.714818 0.442021Q0.639767 0.50309 0.571429 0.571429Q0.50309 0.639767 0.442021 0.714818Q0.380953 0.789868 0.327651 0.871019Q0.27435 0.95217 0.229252 1.03876Q0.184153 1.12535 0.147624 1.21667Q0.111096 1.30799 0.0834357 1.4033Q0.0557754 1.49861 0.037209 1.59713Q0.0186425 1.69564 0.00932124 1.79657Q0 1.89749 0 2Z"
       transform="translate(273 16)"
       id="path_6" />
    <path
       d="M8 16C12.4183 16 16 12.4183 16 8C16 3.58172 12.4183 0 8 0C3.58172 0 0 3.58172 0 8C0 12.4183 3.58172 16 8 16Z"
       transform="translate(172 16)"
       id="path_7" />
    <path
       d="M15 1.24838L15 15.7535Q15 15.856 14.9919 15.9523Q14.9839 16.0485 14.9678 16.1378Q14.9517 16.227 14.9278 16.3085Q14.9038 16.3899 14.8722 16.463Q14.8406 16.536 14.8015 16.6Q14.7625 16.664 14.7163 16.7185Q14.6702 16.773 14.6173 16.8175Q14.5645 16.862 14.5053 16.8961Q14.4461 16.9302 14.3812 16.9537Q14.3162 16.9773 14.2459 16.9899Q14.1757 17.0026 14.1007 17.0044Q14.0257 17.0062 13.9467 16.997Q13.8676 16.9878 13.7851 16.9678Q13.7026 16.9477 13.6173 16.917Q13.532 16.8862 13.4446 16.845Q13.3573 16.8039 13.2685 16.7526L0.726219 9.50192Q0.637474 9.45061 0.558169 9.39544Q0.478863 9.34026 0.409646 9.28166Q0.340428 9.22306 0.281862 9.16152Q0.223296 9.09998 0.175859 9.03599Q0.128423 8.972 0.0925025 8.9061Q0.0565824 8.84019 0.0324716 8.7729Q0.00836086 8.70561 -0.00374387 8.63748Q-0.0158486 8.56935 -0.0158486 8.50095Q-0.0158486 8.43255 -0.00374384 8.36442Q0.00836091 8.2963 0.0324717 8.229Q0.0565824 8.16171 0.0925026 8.09581Q0.128423 8.0299 0.175859 7.96591Q0.223296 7.90193 0.281862 7.84038Q0.340428 7.77884 0.409646 7.72024Q0.478864 7.66164 0.558169 7.60646Q0.637474 7.55129 0.72622 7.49998L13.2685 0.249348Q13.3573 0.198045 13.4446 0.156855Q13.532 0.115665 13.6173 0.084925Q13.7026 0.0541848 13.7851 0.0341448Q13.8676 0.0141048 13.9467 0.00492854Q14.0257 -0.00424772 14.1007 -0.00248542Q14.1757 -0.000723126 14.2459 0.0119634Q14.3162 0.0246498 14.3812 0.048157Q14.4461 0.0716642 14.5053 0.1058Q14.5645 0.139937 14.6173 0.184423Q14.6702 0.22891 14.7163 0.283385Q14.7625 0.337859 14.8015 0.401877Q14.8406 0.465895 14.8722 0.538934Q14.9038 0.611973 14.9278 0.693438Q14.9517 0.774903 14.9678 0.864129Q14.9839 0.953355 14.9919 1.04961Q15 1.14587 15 1.24838Z"
       transform="translate(72 15)"
       id="path_8" />
    <clipPath
       id="clip_1">
      <use
         xlink:href="#path_6"
         id="use1041" />
    </clipPath>
    <clipPath
       id="clip_2">
      <use
         xlink:href="#path_7"
         id="use1044" />
    </clipPath>
    <clipPath
       id="clip_3">
      <use
         xlink:href="#path_8"
         id="use1047" />
    </clipPath>
    <clipPath
       id="mask_1">
      <use
         xlink:href="#path_2"
         id="use1050" />
    </clipPath>
    <clipPath
       id="mask_2">
      <use
         xlink:href="#path_3"
         id="use1053" />
    </clipPath>
    <clipPath
       id="mask_3">
      <use
         xlink:href="#path_4"
         id="use1056" />
    </clipPath>
    <clipPath
       id="mask_4">
      <use
         xlink:href="#path_5"
         id="use1059" />
    </clipPath>
  </defs>
  <path
     d="m 261.2393,60.36553 c 0,3.22426 -2.6394,5.86291 -5.8645,5.86291 h -85.51907 c -3.2273,0 -5.86663,-2.63865 -5.86663,-5.86291 0,-3.22427 2.63933,-5.86289 5.86663,-5.86289 h 85.51907 c 3.2251,0 5.8645,2.63862 5.8645,5.86289"
     id="Fill-1"
     inkscape:connector-curvature="0"
     style="fill:#000000;stroke:none" />
  <g
     id="Fill-2">
    <use
       xlink:href="#path_1"
       id="use1065"
       style="fill:none;stroke:#000000;stroke-width:2"
       x="0"
       y="0"
       width="100%"
       height="100%" />
    <use
       xlink:href="#path_1"
       id="use1067"
       style="fill:#000000;stroke:none"
       x="0"
       y="0"
       width="100%"
       height="100%" />
  </g>
  <path
     d="m 421.417,181.478 c 0,-46.298 0,-80.68 0,-95.5715 C 421.417,-1.23564 356.451,9.41816e-4 212.614,9.41816e-4 68.7772,9.41816e-4 3.81091,-1.23564 3.81091,85.9065 c 0,22.8115 0,91.3225 0,178.3945 C 1.68551,264.593 0,267.077 0,270.107 v 119.988 c 0,3.031 1.68551,5.515 3.81091,5.806 0,124.162 0,257.647 0,346.109 0,93.477 89.28429,92.959 208.80309,92.959 119.519,0 208.803,0.518 208.803,-92.959 0,-127.186 0,-347.443 0,-499.245 2.344,-0.18 4.223,-2.721 4.223,-5.828 v -49.631 c 0,-3.109 -1.879,-5.647 -4.223,-5.828 z m -3.122,562.276 c 0,40.33 -16.932,63.68 -54.905,75.71 -36.545,11.576 -90.105,11.576 -146.804,11.576 h -7.951 C 79.8102,831.04 6.92523,826.987 6.92523,743.754 V 84.3153 C 6.92523,8.00352 56.7211,4.11955 200.71,4.11955 h 23.801 c 143.988,0 193.784,3.88397 193.784,80.19575 z"
     id="Fill-3"
     inkscape:connector-curvature="0"
     style="fill:#000000;stroke:#646464;stroke-width:1" />
  <g
     transform="translate(32.49524,105.6395)"
     id="Workarea">
    <path
       style="fill:#ffffff;stroke:none"
       inkscape:connector-curvature="0"
       id="screen-bg"
       d="M 0,0 V 640 H 360 V 0 Z" />
  </g>
  <g
     transform="translate(32.49524,105.6395)"
     id="Elements">
    <g
       id="status-bar">
      <path
         style="fill:#757575;stroke:none"
         inkscape:connector-curvature="0"
         id="status-bar-bg"
         d="M 0,0 V 24 H 360 V 0 Z" />
      <g
         transform="translate(242)"
         id="status-bar-contents">
        <path
           style="fill:none;stroke:none"
           inkscape:connector-curvature="0"
           id="bounds"
           d="M 0,0 V 24 H 118 V 0 Z" />
        <g
           transform="translate(8,6)"
           id="wifi">
          <path
             style="fill:none;stroke:none"
             inkscape:connector-curvature="0"
             id="wifi-mask"
             d="M 0,0 8,12 16,0 Z" />
          <g
             id="g1083"
             clip-path="url(#mask_2)">
            <path
               style="fill:#ffffff;fill-opacity:0.29803922;stroke:none"
               inkscape:connector-curvature="0"
               id="Shape"
               transform="translate(-4)"
               d="M 12,0 C 5.4,0 0,5.4 0,12 0,18.6 5.4,24 12,24 18.6,24 24,18.6 24,12 24,5.4 18.6,0 12,0 Z m 0,21 C 7,21 3,17 3,12 3,7 7,3 12,3 c 5,0 9,4 9,9 0,5 -4,9 -9,9 z" />
            <path
               style="fill:#ffffff;fill-opacity:0.90196078;stroke:none"
               inkscape:connector-curvature="0"
               id="path1078"
               transform="translate(-1,3)"
               d="M 9,0 C 4,0 0,4 0,9 c 0,5 4,9 9,9 5,0 9,-4 9,-9 C 18,4 14,0 9,0 Z M 9,15 C 5.7,15 3,12.3 3,9 3,5.7 5.7,3 9,3 c 3.3,0 6,2.7 6,6 0,3.3 -2.7,6 -6,6 z" />
            <path
               style="fill:#ffffff;fill-opacity:0.90196078;stroke:none"
               inkscape:connector-curvature="0"
               id="path1080"
               transform="translate(2,6)"
               d="M 6,0 C 2.7,0 0,2.7 0,6 0,9.3 2.7,12 6,12 9.3,12 12,9.3 12,6 12,2.7 9.3,0 6,0 Z M 6,9 C 4.3,9 3,7.7 3,6 3,4.3 4.3,3 6,3 7.7,3 9,4.3 9,6 9,7.7 7.7,9 6,9 Z" />
            <path
               style="fill:#ffffff;fill-opacity:0.90196078;stroke:none"
               inkscape:connector-curvature="0"
               id="Oval"
               transform="translate(5,9)"
               d="M 3,6 C 4.65685,6 6,4.65685 6,3 6,1.34315 4.65685,0 3,0 1.34315,0 0,1.34315 0,3 0,4.65685 1.34315,6 3,6 Z" />
          </g>
        </g>
        <g
           transform="translate(34,6)"
           id="reception">
          <path
             style="fill:none;stroke:none"
             inkscape:connector-curvature="0"
             id="reception-mask"
             d="M 12,12 V 0 L 0,12 Z" />
          <g
             id="g1094"
             clip-path="url(#mask_3)">
            <path
               style="fill:#ffffff;fill-opacity:0.29803922;stroke:none"
               inkscape:connector-curvature="0"
               id="Rectangle-path"
               transform="translate(9)"
               d="M 0,0 V 12 H 3 V 0 Z" />
            <path
               style="fill:#ffffff;fill-opacity:0.29803922;stroke:none"
               inkscape:connector-curvature="0"
               id="path1088"
               transform="translate(6)"
               d="M 0,0 V 12 H 3 V 0 Z" />
            <path
               style="fill:#ffffff;fill-opacity:0.90196078;stroke:none"
               inkscape:connector-curvature="0"
               id="path1090"
               transform="translate(3)"
               d="M 0,0 V 12 H 3 V 0 Z" />
            <path
               style="fill:#ffffff;fill-opacity:0.90196078;stroke:none"
               inkscape:connector-curvature="0"
               id="path1092"
               d="M 0,0 V 12 H 3 V 0 Z" />
          </g>
        </g>
        <g
           transform="translate(60,5)"
           id="battery">
          <path
             style="fill:none;stroke:none"
             inkscape:connector-curvature="0"
             id="battery-mask"
             d="M 7,1 H 6 V 0 H 2 V 1 H 1 C 0.4,1 0,1.4 0,2 v 10 c 0,0.6 0.4,1 1,1 h 6 c 0.6,0 1,-0.4 1,-1 V 2 C 8,1.4 7.6,1 7,1 Z" />
          <g
             id="g1108"
             clip-path="url(#mask_4)">
            <path
               style="fill:#ffffff;fill-opacity:0.90196078;stroke:none"
               inkscape:connector-curvature="0"
               id="path1098"
               transform="translate(0,10)"
               d="M 0,0 V 3 H 8 V 0 Z" />
            <path
               style="fill:#ffffff;fill-opacity:0.90196078;stroke:none"
               inkscape:connector-curvature="0"
               id="path1100"
               transform="translate(0,7)"
               d="M 0,0 V 3 H 8 V 0 Z" />
            <path
               style="fill:#ffffff;fill-opacity:0.29803922;stroke:none"
               inkscape:connector-curvature="0"
               id="path1102"
               transform="translate(0,4)"
               d="M 0,0 V 3 H 8 V 0 Z" />
            <path
               style="fill:#ffffff;fill-opacity:0.29803922;stroke:none"
               inkscape:connector-curvature="0"
               id="path1104"
               transform="translate(0,1)"
               d="M 0,0 V 3 H 8 V 0 Z" />
            <path
               style="fill:#ffffff;fill-opacity:0.29803922;stroke:none"
               inkscape:connector-curvature="0"
               id="path1106"
               transform="translate(2)"
               d="M 0,0 V 1 H 4 V 0 Z" />
          </g>
        </g>
        <g
           style="opacity:0.9"
           transform="translate(77,5)"
           id="time">
          <g
             style="fill:#ffffff;stroke:none"
             id="12:30">
            <path
               inkscape:connector-curvature="0"
               id="path1111"
               d="M 4.5957,13.0513 H 3.55469 V 5.18652 Q 3.43408,5.30713 3.20239,5.46265 2.9707,5.61816 2.68188,5.77051 2.39307,5.92285 2.07251,6.05615 1.75195,6.18945 1.44727,6.26563 V 5.21191 Q 1.79004,5.1167 2.17407,4.95483 2.55811,4.79297 2.92944,4.59302 3.30078,4.39307 3.63086,4.17407 3.96094,3.95508 4.20215,3.74561 H 4.5957 Z m 7.3125,-6.71585 q 0,-0.41895 -0.1301,-0.72998 Q 11.6479,5.29443 11.4226,5.08813 11.1973,4.88184 10.8926,4.78027 10.5879,4.67871 10.2324,4.67871 9.92773,4.67871 9.63574,4.76123 9.34375,4.84375 9.06763,4.98975 8.7915,5.13574 8.53442,5.33887 8.27734,5.54199 8.05518,5.78955 V 4.67236 Q 8.49316,4.24707 9.03589,4.02173 9.57861,3.79639 10.3594,3.79639 q 0.5586,0 1.0346,0.16186 0.4761,0.16187 0.8252,0.4729 0.3492,0.31104 0.5491,0.76807 0.2,0.45703 0.2,1.04736 0,0.53955 -0.1238,0.97754 -0.1238,0.43799 -0.3745,0.8252 -0.2508,0.3872 -0.6316,0.74267 -0.3809,0.35547 -0.895,0.72364 Q 10.3022,9.97266 9.88647,10.2964 9.4707,10.6201 9.22632,10.9026 8.98193,11.1851 8.88354,11.4675 8.78516,11.75 8.78516,12.1182 h 4.53224 v 0.9331 H 7.69971 v -0.4507 q 0,-0.584 0.12695,-1.0283 Q 7.95361,11.1279 8.24561,10.728 8.5376,10.3281 9.0105,9.92822 9.4834,9.52832 10.1689,9.02686 10.6641,8.67139 10.9973,8.34766 11.3306,8.02393 11.5337,7.7002 11.7368,7.37647 11.8225,7.04321 11.9082,6.70996 11.9082,6.33545 Z m 10.9751,4.13865 q 0,0.6157 -0.2317,1.1204 -0.2317,0.5046 -0.6538,0.8633 -0.4221,0.3586 -1.0124,0.5554 -0.5904,0.1968 -1.3013,0.1968 -1.3013,0 -2.0694,-0.4952 v -1.1171 q 0.9205,0.7236 2.1075,0.7236 0.476,0 0.8601,-0.1206 0.384,-0.1206 0.6601,-0.3491 0.2762,-0.2286 0.4253,-0.5523 0.1492,-0.3237 0.1492,-0.73 0,-1.78366 -2.5391,-1.78366 H 18.5225 V 7.90332 h 0.7172 q 2.2471,0 2.2471,-1.67578 0,-1.54883 -1.7139,-1.54883 -0.9648,0 -1.809,0.64746 V 4.31689 q 0.8696,-0.5205 2.0693,-0.5205 0.5713,0 1.0347,0.15869 0.4634,0.15869 0.7934,0.44433 0.3301,0.28565 0.511,0.68555 0.1809,0.3999 0.1809,0.88233 0,1.79638 -1.8154,2.31054 v 0.02539 q 0.4634,0.05078 0.8569,0.22534 0.3936,0.17457 0.6792,0.45386 0.2857,0.2793 0.4475,0.65698 0.1619,0.3777 0.1619,0.8347 z m 7.2268,0.0127 q 0.2063,-0.88231 0.2063,-2.02489 0,-4.66552 -2.8628,-4.66552 -0.7427,0 -1.3171,0.31421 -0.5745,0.3142 -0.9617,0.9331 -0.3872,0.6189 -0.5872,1.53296 -0.1999,0.91406 -0.1999,2.10742 0,1.08545 0.1904,1.92652 0.1905,0.8411 0.5586,1.4187 0.3682,0.5776 0.9046,0.8791 0.5363,0.3016 1.2219,0.3016 0.7236,0 1.2917,-0.3142 0.5681,-0.3143 0.9585,-0.9205 0.3904,-0.6062 0.5967,-1.4885 z M 27.4028,4.67871 q 1.8472,0 1.8472,3.88477 0,3.75782 -1.8853,3.75782 -1.9106,0 -1.9106,-3.688 0,-3.95459 1.9487,-3.95459 z M 14.9329,7.61133 q 0.2063,0.20947 0.4983,0.20947 0.2983,0 0.5078,-0.20947 0.2094,-0.20947 0.2094,-0.50147 0,-0.29199 -0.2094,-0.49511 -0.2095,-0.20313 -0.5078,-0.20313 -0.292,0 -0.4983,0.20313 -0.2063,0.20312 -0.2063,0.49511 0,0.292 0.2063,0.50147 z m 0,5.37007 q 0.2063,0.2095 0.4983,0.2095 0.2983,0 0.5078,-0.2095 0.2094,-0.2094 0.2094,-0.5014 0,-0.292 -0.2094,-0.5047 -0.2095,-0.2126 -0.5078,-0.2126 -0.292,0 -0.4983,0.2126 -0.2063,0.2127 -0.2063,0.5047 0,0.292 0.2063,0.5014 z" />
          </g>
        </g>
      </g>
    </g>
    <g
       transform="translate(0,592)"
       id="navbar">
      <path
         style="fill:#000000;stroke:none"
         inkscape:connector-curvature="0"
         id="navbar-bg"
         d="M 0,0 V 48 H 360 V 0 Z" />
      <g
         id="recent">
        <g
           id="g1120"
           clip-path="url(#clip_1)">
          <use
             height="100%"
             width="100%"
             y="0"
             x="0"
             style="fill:none;stroke:#ffffff;stroke-width:4"
             id="use1118"
             xlink:href="#path_6" />
        </g>
      </g>
      <g
         id="home">
        <g
           id="g1125"
           clip-path="url(#clip_2)">
          <use
             height="100%"
             width="100%"
             y="0"
             x="0"
             style="fill:none;stroke:#ffffff;stroke-width:4"
             id="use1123"
             xlink:href="#path_7" />
        </g>
      </g>
      <g
         id="back">
        <g
           id="g1130"
           clip-path="url(#clip_3)">
          <use
             height="100%"
             width="100%"
             y="0"
             x="0"
             style="fill:none;stroke:#ffffff;stroke-width:4"
             id="use1128"
             xlink:href="#path_8" />
        </g>
      </g>
    </g>
  </g>
  <path
     style="opacity:1;fill:#f2f2f2;fill-opacity:1;fill-rule:nonzero;stroke:#fff6d5;stroke-width:1.3;stroke-linecap:butt;stroke-linejoin:round;stroke-miterlimit:4;stroke-dasharray:none;stroke-dashoffset:0;stroke-opacity:1;paint-order:fill markers stroke"
     d="M 32.978662,413.64821 V 130.31487 H 212.48566 391.99265 V 413.64821 696.98156 H 212.48566 32.978662 Z"
     id="path1196"
     inkscape:connector-curvature="0" />
  <rect
     style="opacity:1;fill:#0000ff;fill-opacity:1;fill-rule:nonzero;stroke:#0000ff;stroke-width:0.4125807;stroke-linecap:round;stroke-linejoin:round;stroke-miterlimit:4;stroke-dasharray:none;stroke-dashoffset:0;stroke-opacity:1;paint-order:fill markers stroke"
     id="rect936"
     width="359.96536"
     height="59.587418"
     x="32.495239"
     y="129.6395" />
  <g
     id="g934"
     transform="matrix(0,-0.42341891,0.42341891,0,-71.612889,-21.510924)"
     style="stroke:#ffffff;stroke-width:7.00913;stroke-miterlimit:4;stroke-dasharray:none;stroke-opacity:1">
    <g
       transform="rotate(-45,-420,315)"
       id="g928"
       style="stroke:#ffffff;stroke-width:7.00913;stroke-miterlimit:4;stroke-dasharray:none;stroke-opacity:1">
      <path
         style="fill:#000000;fill-rule:nonzero;stroke:#ffffff;stroke-width:7.00913;stroke-linecap:round;stroke-linejoin:miter;stroke-miterlimit:4;stroke-dasharray:none;stroke-opacity:1"
         d="m -400,335 c 0,-40 0,-40 0,-40"
         id="path96"
         inkscape:connector-curvature="0" />
      <path
         style="fill:#000000;fill-rule:nonzero;stroke:#ffffff;stroke-width:7.00913;stroke-linecap:round;stroke-linejoin:miter;stroke-miterlimit:4;stroke-dasharray:none;stroke-opacity:1"
         d="m -440,295 c 40,0 40,0 40,0"
         id="path96-9"
         inkscape:connector-curvature="0" />
    </g>
    <path
       inkscape:connector-curvature="0"
       id="path96-3"
       d="m -420,345 c 0,-56.28427 0,-56.28427 0,-56.28427"
       style="fill:#000000;fill-rule:nonzero;stroke:#ffffff;stroke-width:7.00913;stroke-linecap:round;stroke-linejoin:miter;stroke-miterlimit:4;stroke-dasharray:none;stroke-opacity:1" />
  </g>
  <rect
     style="opacity:1;fill:#999999;fill-opacity:1;fill-rule:nonzero;stroke:#999999;stroke-width:0.30874476;stroke-linecap:round;stroke-linejoin:round;stroke-miterlimit:4;stroke-dasharray:none;stroke-dashoffset:0;stroke-opacity:1;paint-order:fill markers stroke"
     id="rect958"
     width="119.17016"
     height="24.679394"
     x="160.58142"
     y="207.49142"
     ry="8.3471746" />
  <text
     xml:space="preserve"
     style="font-style:normal;font-variant:normal;font-weight:normal;font-stretch:normal;font-size:15.07522202px;line-height:23.55503464px;font-family:'Times New Roman';-inkscape-font-specification:'Times New Roman, ';text-align:start;letter-spacing:0px;word-spacing:0px;text-anchor:start;fill:#000000;fill-opacity:1;stroke:none;stroke-width:0.94220138"
     x="180.10313"
     y="207.35573"
     id="text962"
     transform="scale(0.9253493,1.080673)"><tspan
       sodipodi:role="line"
       id="tspan960"
       x="180.10313"
       y="207.35573"
       style="font-style:normal;font-variant:normal;font-weight:normal;font-stretch:normal;font-size:13.81895351px;font-family:'Arial Rounded MT Bold';-inkscape-font-specification:'Arial Rounded MT Bold, ';fill:#ffffff;stroke-width:0.94220138">May 31, 12:30 PM</tspan></text>
</svg>
