<?xml version="1.0" encoding="UTF-8" standalone="no"?>
<svg
   xmlns:dc="http://purl.org/dc/elements/1.1/"
   xmlns:cc="http://creativecommons.org/ns#"
   xmlns:rdf="http://www.w3.org/1999/02/22-rdf-syntax-ns#"
   xmlns:svg="http://www.w3.org/2000/svg"
   xmlns="http://www.w3.org/2000/svg"
   xmlns:sodipodi="http://sodipodi.sourceforge.net/DTD/sodipodi-0.dtd"
   xmlns:inkscape="http://www.inkscape.org/namespaces/inkscape"
   id="be454bab-2889-49bf-9d82-a1b13c4d4a30"
   data-name="Layer 1"
   width="615.37793"
   height="475.37796"
   viewBox="0 0 615.37793 475.37795"
   version="1.1"
   sodipodi:docname="undraw_girl_looking_at_phone.svg"
   inkscape:version="0.92.0 r15299">
  <metadata
     id="metadata75">
    <rdf:RDF>
      <cc:Work
         rdf:about="">
        <dc:format>image/svg+xml</dc:format>
        <dc:type
           rdf:resource="http://purl.org/dc/dcmitype/StillImage" />
      </cc:Work>
    </rdf:RDF>
  </metadata>
  <defs
     id="defs73" />
  <sodipodi:namedview
     pagecolor="#ffffff"
     bordercolor="#666666"
     borderopacity="1"
     objecttolerance="10"
     gridtolerance="10"
     guidetolerance="10"
     inkscape:pageopacity="0"
     inkscape:pageshadow="2"
     inkscape:window-width="1366"
     inkscape:window-height="739"
     id="namedview71"
     showgrid="false"
     inkscape:snap-grids="true"
     inkscape:zoom="0.69764454"
     inkscape:cx="453.27727"
     inkscape:cy="267.63525"
     inkscape:window-x="-9"
     inkscape:window-y="-9"
     inkscape:window-maximized="1"
     inkscape:current-layer="be454bab-2889-49bf-9d82-a1b13c4d4a30">
    <inkscape:grid
       type="xygrid"
       id="grid4580"
       originx="-29.811024"
       originy="0.18897637" />
  </sodipodi:namedview>
  <path
     d="m 16.059056,473.75195 a 37,37 0 0 1 74,0"
     id="path2"
     inkscape:connector-curvature="0"
     style="fill:#f2f2f2" />
  <path
     d="m 53.059056,473.75195 a 1,1 0 0 1 -1,-1 v -19.5 a 1,1 0 0 1 2,0 v 19.5 a 1.00005,1.00005 0 0 1 -1,1 z"
     id="path4"
     inkscape:connector-curvature="0"
     style="fill:#cccccc" />
  <path
     d="m 53.058566,467.05127 a 0.99544,0.99544 0 0 1 -0.65088,-0.24121 l -11.99988,-10.29932 a 1,1 0 1 1 1.30262,-1.51758 l 12,10.29932 a 1,1 0 0 1 -0.65186,1.75879 z"
     id="path6"
     inkscape:connector-curvature="0"
     style="fill:#cccccc" />
  <path
     d="m 300.05906,473.75195 a 37,37 0 0 1 74,0"
     id="path8"
     inkscape:connector-curvature="0"
     style="fill:#f2f2f2" />
  <path
     d="m 337.05906,473.75195 a 1,1 0 0 1 -1,-1 v -19.5 a 1,1 0 0 1 2,0 v 19.5 a 1.00005,1.00005 0 0 1 -1,1 z"
     id="path10"
     inkscape:connector-curvature="0"
     style="fill:#cccccc" />
  <path
     d="m 337.05857,467.05127 a 0.99544,0.99544 0 0 1 -0.65088,-0.24121 l -12,-10.29932 a 1.0000226,1.0000226 0 0 1 1.30274,-1.51758 l 12,10.29932 a 1,1 0 0 1 -0.65186,1.75879 z"
     id="path12"
     inkscape:connector-curvature="0"
     style="fill:#cccccc" />
  <circle
     cx="223.05907"
     cy="69.188965"
     r="21"
     id="circle18"
     style="fill:#ffffff" />
  <path
     d="m 337.8117,294.3869 a 10.74273,10.74273 0 0 0 7.44458,-14.69442 l 39.60233,-89.47207 -22.65457,-5.706 -31.80418,89.74234 a 10.80091,10.80091 0 0 0 7.41184,20.13012 z"
     id="path22"
     inkscape:connector-curvature="0"
     style="fill:#a0616a" />
  <path
     d="m 373.49759,218.22193 -22.03343,-10.31357 a 4.81687,4.81687 0 0 1 -1.97428,-7.02163 l 13.39047,-20.2227 a 13.37737,13.37737 0 0 1 24.198,11.41337 l -6.92414,23.16293 a 4.81687,4.81687 0 0 1 -6.65667,2.9816 z"
     id="path24"
     inkscape:connector-curvature="0"
     style="fill:#ffc107" />
  <path
     d="m 296.8912,206.71535 24.29167,17.19824 a 1.82333,1.82333 0 0 0 2.141,0 l 6.56406,-4.92891 a 1.79973,1.79973 0 0 0 0.1176,-2.8115 L 311.3133,199.50431 a 1.84681,1.84681 0 0 0 -1.82333,-0.35289 l -12.1635,4.35248 a 1.8351,1.8351 0 0 0 -0.43524,3.21145 z"
     id="path26"
     inkscape:connector-curvature="0"
     style="fill:#3f3d56" />
  <path
     d="m 299.09911,205.38867 21.89136,15.499 a 0.64325,0.64325 0 0 0 0.76464,0.007 l 5.90357,-4.43262 a 0.627,0.627 0 0 0 0.14453,-0.87793 0.63706,0.63706 0 0 0 -0.092,-0.0996 l -16.85986,-15.03515 a 0.65638,0.65638 0 0 0 -0.64844,-0.12012 l -10.9561,3.91999 a 0.654,0.654 0 0 0 -0.1477,1.13965 z"
     id="path28"
     style="fill:#3f3d56;fill-opacity:1"
     inkscape:connector-curvature="0" />
  <polygon
     points="347.238,419.045 347.236,466.333 334.976,466.332 329.144,419.044 "
     id="polygon30"
     transform="translate(38.188976,-3.2128181)"
     style="fill:#a0616a" />
  <path
     d="m 388.55154,475.00429 -39.53052,-0.001 v -0.5 a 15.38605,15.38605 0 0 1 15.38648,-15.38623 h 10e-4 l 24.1438,0.001 z"
     id="path32"
     inkscape:connector-curvature="0"
     style="fill:#2f2e41" />
  <polygon
     points="388.238,419.045 388.236,466.333 375.976,466.332 370.144,419.044 "
     id="polygon34"
     transform="translate(38.188976,-3.2128181)"
     style="fill:#a0616a" />
  <path
     d="m 429.55154,475.00429 -39.53052,-0.001 v -0.5 a 15.38605,15.38605 0 0 1 15.38648,-15.38623 h 10e-4 l 24.1438,0.001 z"
     id="path36"
     inkscape:connector-curvature="0"
     style="fill:#2f2e41" />
  <path
     d="m 425.86424,449.96484 q -0.16662,0 -0.33349,-0.0117 l -14.09888,-1.04396 a 4.52724,4.52724 0 0 1 -4.06445,-3.53028 l -24.48,-134.37207 a 1.5,1.5 0 0 0 -2.96094,0.4375 l 8.69214,132.39258 a 4.49975,4.49975 0 0 1 -4.48608,4.85254 h -10.73607 a 4.5001,4.5001 0 0 1 -4.19238,-2.86035 c -27.00025,-70.70606 -17.22267,-209.24659 -17.145,-210.64014 l 1,-1 v 0 l 53.77784,9.28565 0.11376,0.11035 c 18.37451,13.49642 26.32666,171.54988 23.40479,201.61621 a 5.38655,5.38655 0 0 1 -1.32934,3.46777 4.50444,4.50444 0 0 1 -3.1619,1.2959 z"
     id="path38"
     inkscape:connector-curvature="0"
     style="fill:#2f2e41" />
  <circle
     cx="358.263"
     cy="128.58333"
     r="24.561029"
     id="circle40"
     style="fill:#a0616a" />
  <path
     d="m 414.59276,266.29199 a 3.73354,3.73354 0 0 1 -0.74438,-0.0749 l -63.07813,-8.09415 c -2.25854,-0.45553 -3.86987,-2.86547 -3.74805,-5.608 l 6.03686,-33.326 c -8,-10 -0.44067,-35.82569 4.44752,-42.35524 l -1.89038,-5.11615 a 6.35021,6.35021 0 0 1 -0.084,-4.129 5.06472,5.06472 0 0 1 2.37549,-2.98959 l 25.59961,-13.60128 c 2.26953,-1.20614 4.93213,0.0281 5.93726,2.74836 l 5.02,13.58606 -0.0769,0.0398 c 12.02051,6.4429 22.67138,12.817 14.67138,46.817 l 10.02979,46.95644 a 5.82064,5.82064 0 0 1 -1.66845,3.94865 4.07217,4.07217 0 0 1 -2.82761,1.19803 z"
     id="path42"
     inkscape:connector-curvature="0"
     style="fill:#ffc107" />
  <path
     d="m 325.59218,211.24215 a 10.52623,10.52623 0 0 1 1.11411,1.22722 l 49.47526,-3.41877 5.30763,-10.8159 17.37,5.87671 -7.53534,20.06054 a 8,8 0 0 1 -8.094,5.164 l -56.26,-4.26654 a 10.4971,10.4971 0 1 1 -1.37766,-13.82724 z"
     id="path44"
     inkscape:connector-curvature="0"
     style="fill:#a0616a" />
  <path
     d="m 375.28845,206.66586 a 4.49515,4.49515 0 0 1 0.146,-3.74422 l 10.20236,-20.1498 a 12.49742,12.49742 0 0 1 23.73806,7.82569 l -3.92951,22.31536 a 4.5,4.5 0 0 1 -5.85316,3.48894 l -21.56391,-7.17907 a 4.495,4.495 0 0 1 -2.73984,-2.5569 z"
     id="path46"
     inkscape:connector-curvature="0"
     style="fill:#ffc107" />
  <path
     d="M 615.18898,475.18896 H -28.811024 a 1,1 0 0 1 0,-2 H 615.18898 a 1,1 0 0 1 0,2 z"
     id="path54"
     inkscape:connector-curvature="0"
     style="fill:#cccccc" />
  <circle
     cx="372.05905"
     cy="89.188965"
     r="20"
     id="circle56"
     style="fill:#2f2e41" />
  <path
     d="m 335.0122,131.61968 c -1.95377,0.20644 -4.03164,0.39219 -5.78953,-0.48513 a 6.87559,6.87559 0 0 1 -3.43723,-5.18648 c -3.72638,-24.75911 17.32685,-22.72253 19.81721,-23.79484 1.67419,-0.72088 2.90715,-2.171758 4.40322,-3.213068 3.272,-2.27736 7.51718,-2.44387 11.50274,-2.52982 4.7316,-0.10205 9.63475,-0.17228 13.97751,1.7089 a 20.93686,20.93686 0 0 1 9.29078,8.563688 43.23974,43.23974 0 0 1 4.60677,11.93321 c 1.20394,4.78691 2.02295,9.85054 0.78346,14.62837 a 18.09,18.09 0 0 1 -16.41915,13.15822 c 1.61623,-5.70643 -1.9109,-12.03248 -7.14316,-14.82512 a 20.64186,20.64186 0 0 0 -13.61665,-1.62139 59.9399,59.9399 0 0 1 -9.03215,1.1248 c -2.97784,0.11146 -6.55334,0.28605 -8.94382,0.53866 z"
     id="path58"
     inkscape:connector-curvature="0"
     style="fill:#2f2e41" />
  <path
     d="m 613.80076,208.54344 c 0,-48.26367 -39.15191,-162.790998 -87.44824,-162.790998 -48.29633,0 -87.44825,114.527308 -87.44825,162.790998 a 87.44827,87.44827 0 0 0 174.89649,0 z"
     id="path60"
     inkscape:connector-curvature="0"
     style="fill:#f2f2f2" />
  <path
     d="m 526.35252,474.18896 a 1,1 0 0 1 -1,-1 V 197.04833 a 1,1 0 1 1 2,0 v 276.14063 a 1.00005,1.00005 0 0 1 -1,1 z"
     id="path62"
     inkscape:connector-curvature="0"
     style="fill:#cccccc" />
  <path
     d="m 526.35298,235.18896 a 0.99768,0.99768 0 0 1 -0.7561,-0.34473 l -50.29346,-58 a 1.00017,1.00017 0 0 1 1.51123,-1.31054 l 50.29346,58 a 1.00027,1.00027 0 0 1 -0.75513,1.65527 z"
     id="path64"
     inkscape:connector-curvature="0"
     style="fill:#cccccc" />
  <path
     d="m 526.35252,268.66162 a 1,1 0 0 1 -0.707,-1.707 l 28.57764,-28.57812 a 0.99989142,0.99989142 0 1 1 1.41406,1.41406 l -28.57763,28.57813 a 0.99636,0.99636 0 0 1 -0.70707,0.29293 z"
     id="path66"
     inkscape:connector-curvature="0"
     style="fill:#cccccc" />
  <path
     d="m 526.35252,378.66162 a 1,1 0 0 1 -0.707,-1.707 l 28.57764,-28.57812 a 0.99989142,0.99989142 0 0 1 1.41406,1.41406 l -28.57763,28.57813 a 0.99636,0.99636 0 0 1 -0.70707,0.29293 z"
     id="path68"
     inkscape:connector-curvature="0"
     style="fill:#cccccc" />
  <ellipse
     style="fill:#ffffff;stroke-width:0.48523176"
     cx="352.54379"
     cy="84.29837"
     id="circle58"
     rx="2.2489996"
     ry="1.6750547"
     transform="matrix(0.93487753,0.35497043,-0.23642445,0.97164987,0,0)" />
  <polygon
     transform="matrix(0.62557321,0,0,0.93327047,13.952216,-124.17077)"
     style="fill:#e6e6e6"
     points="440.354,296.824 440.354,330.021 407.157,296.824 68.348,296.824 68.348,169.893 455,169.893 455,296.824 "
     id="polygon2" />
  <rect
     style="fill:#ffffff;stroke-width:0.8042745"
     x="63.42754"
     y="40.188984"
     width="228.4416"
     height="104.99999"
     id="rect4" />
  <rect
     style="fill:#f9a826;stroke-width:0.76408702"
     x="81.797737"
     y="73.589447"
     width="109.98878"
     height="4.97967"
     id="rect6" />
  <rect
     style="fill:#e6e6e6;stroke-width:0.76408702"
     x="81.797737"
     y="90.815704"
     width="191.7012"
     height="4.97967"
     id="rect8" />
  <rect
     style="fill:#e6e6e6;stroke-width:0.76408702"
     x="81.797737"
     y="108.04197"
     width="191.51349"
     height="4.97967"
     id="rect10" />
</svg>
